<svg xmlns="http://www.w3.org/2000/svg" width="150" height="49.867" viewBox="0 0 150 49.867"><defs><clipPath id="a"><path d="M23.781-20.29a5.469 5.469 0 0 0 2.2 4.354c3.269 2.267 8.079 2.418 11.114-.469.234-.257.467-.469.747-.741 2.8-2.766 4.53-8.012 3.829-12.667l-.42-2.041c-.794.393-1.308.8-2.335 1.254l-2.572 1.12c-3.176 1.405-10.18 3.567-11.722 6.364a6.518 6.518 0 0 0-.841 2.826z" transform="translate(-23.781 31.854)" fill="#739518" clip-rule="evenodd"/></clipPath><clipPath id="b"><path d="M-77 169.817h262.409V-355H-77z" transform="translate(77 355)" fill="#739518"/></clipPath><clipPath id="c"><path d="M15.068-42.012c0 4.852 1.4 10.007 2.522 14.511.28 1.012 3.222 11.065 3.876 12.576.187.408-.047.2.28.333a65.264 65.264 0 0 1-1.214-7.508c-.747-8.042-1.541-17.686 2.288-25.047 1.448-2.736 4.53-5.246 7.892-5.246v-.091c-6.3 0-14.15.363-15.364 7.512a19.718 19.718 0 0 0-.28 2.96z" transform="translate(-15.068 52.488)" fill="#739518" clip-rule="evenodd"/></clipPath><clipPath id="e"><path d="M12.887-61.1a16.106 16.106 0 0 0 .093 2.57 1.278 1.278 0 0 1 0 .726 3.733 3.733 0 0 0 4.3 2.358 8.6 8.6 0 0 0 2.942-.544c2.1-.982 2.428-2.252 2.335-4.323-.14-2.086-1.448-2.978-1.915-5.018a5.884 5.884 0 0 1-.094-1.617c0-.726.187-.982.187-1.572a3.012 3.012 0 0 0-2.055 2.464c-.56-.378-1.121-2.63-2.008-2.857a6.788 6.788 0 0 0-.42 3.068c-.42-.121-.747-.756-1.308-1.285a2.476 2.476 0 0 0-2.055-1 5.479 5.479 0 0 1 .327 3.4z" transform="translate(-12.88 68.911)" fill="none" clip-rule="evenodd"/></clipPath><clipPath id="f"><path d="M-77 169.817h262.409V-355H-77z" transform="translate(77 355)" fill="none"/></clipPath><clipPath id="g"><path d="m23.14-31.092 6.351-3.6c7.706-3.567 9.947-.272 11.161.045a8.3 8.3 0 0 0-2.475-2.373c-4.483-2.57-10.227-.378-13.31 3.28a11.775 11.775 0 0 0-1.727 2.648z" transform="translate(-23.14 38.134)" fill="#739518" clip-rule="evenodd"/></clipPath><clipPath id="i"><path d="M9.509-55.332a1.278 1.278 0 0 0 0-.726 16.109 16.109 0 0 1-.093-2.57 10.311 10.311 0 0 0-7.192-.892l-2.148.892a15.494 15.494 0 0 1 9.433 3.296z" transform="translate(-.076 59.802)" fill="#739518" clip-rule="evenodd"/></clipPath><clipPath id="k"><path d="M102.187-27.7c1.681 0 1.495.333 2.148-1.829l1.4-4.444c.14-.423.187-.741.327-1.134l.374-1.043v-.06c.187.71.42 1.421.654 2.147l1.354 4.4c.7 2.343.234 1.965 2.382 1.965.327 0 .373-.257.467-.529l.794-2.177c.28-.816 3.129-8.329 3.129-8.767s-.514-.3-1.588-.3c-.747 0-.607.635-1.121 1.875l-2.382 6.636c-.14-.7-.467-1.527-.654-2.192l-1.821-6.031c-.234-.469-.747-.287-2.008-.287-.373 0-.654 1.421-.84 2.011-.327 1.088-2.008 6.016-2.055 6.59-.187-.317-2.2-6.047-2.335-6.53-.84-2.494-.513-2.071-2.428-2.071-.794 0 .14 1.738.513 2.857.84 2.449 1.962 5.17 2.756 7.649.093.3.187.559.28.8.14.327.187.464.654.464z" transform="translate(-97.674 39.51)" fill="#739518" clip-rule="evenodd"/></clipPath><clipPath id="m"><path d="M193.77-29.243c-3.783 0-3.69-3.371-.094-3.749a24.973 24.973 0 0 0 3.969-.514c0 1.8.14 2.253-.84 3.2a4.426 4.426 0 0 1-3.035 1.059zm-4.3-6.334a4.5 4.5 0 0 0 2.008 0c.467-1.919 1.028-2.373 3.6-2.373 1.167 0 2.568.3 2.568 1.678 0 .907 0 1.466-2.381 1.481-2.428.015-6.445.559-6.445 3.658a3.844 3.844 0 0 0 .373 1.784c1.261 2.176 4.717 2.237 6.865 1.391a17.046 17.046 0 0 0 1.821-1c.14 1.677 3.362 1.587 3.362.892 0-1.753 0-1.058-1.4-1.376v-7.21c-.467-3.054-3.456-3.084-5.744-3.084a5.818 5.818 0 0 0-3.362 1.149 3.416 3.416 0 0 0-1.262 3.01z" transform="translate(-188.819 39.734)" fill="none" clip-rule="evenodd"/></clipPath><clipPath id="o"><path d="M152.114-29.258c-3.689 0-3.736-3.22-.14-3.719 1.448-.212 2.8-.242 4.109-.544 0 1.527-.046 2.464-.887 3.174a4.34 4.34 0 0 1-3.082 1.089zm-4.3-6.923c0 1.013.607.711 2.1.59 0-3.174 4.67-2.494 5.511-1.9a1.973 1.973 0 0 1 .653 1.6c-.093 1.784-3.969.438-7.145 2.011-3.176 1.588-2.008 6.409 2.288 6.409a6.989 6.989 0 0 0 4.95-1.5c.421 1.8 3.5 1.5 3.5.892v-.892c0-.7-1.121-.121-1.4-.575-.187-.272-.094-5.487-.094-6.047 0-1.995-.467-3.174-2.335-3.794-2.335-.771-6.118-.544-7.519 1.633a4.029 4.029 0 0 0-.506 1.572z" transform="translate(-147.132 39.79)" fill="none" clip-rule="evenodd"/></clipPath><clipPath id="q"><path d="M126.6-37.95a3.189 3.189 0 0 1 2.62.95 3.564 3.564 0 0 1 .654.922c.421.816.187.862.373 1.285H123.1A3.669 3.669 0 0 1 124.177-37a3.444 3.444 0 0 1 2.428-.952zm-5.7 3.961a6.953 6.953 0 0 0 1.4 4.822c2.055 2.177 6.024 2.237 8.313.544.747-.575 2.662-3.189 1.027-3.189-2.568 0-.7.106-2.335 1.708a3.775 3.775 0 0 1-6.212-2.9h7.285c2.149 0 2.055.212 2.055-1.194 0-3.008-2.1-5.532-5.043-5.532a6.989 6.989 0 0 0-3.549.559 5.681 5.681 0 0 0-2.933 5.181z" transform="translate(-120.908 39.735)" fill="#739518" clip-rule="evenodd"/></clipPath><clipPath id="s"><path d="M59.467-45.06v15.343c0 .68 1.774.378 2.2.287a70.737 70.737 0 0 0 .093-7.12h7.939a6.162 6.162 0 0 0 .7-.091c0-.953.187-1.89-.28-1.89h-8.364v-4.943h9.153c.654 0 .374-1.481.28-1.875-1.027-.257-9.387-.106-11.114-.106-.327.002-.607.093-.607.395z" transform="translate(-59.467 45.498)" fill="#739518" clip-rule="evenodd"/></clipPath><clipPath id="u"><path d="M87.7-29.252a3.919 3.919 0 0 1-4.062-4.066 4.225 4.225 0 0 1 1.121-3.431 3.346 3.346 0 0 1 2.942-1.21 3.657 3.657 0 0 1 2.8 1.21 4.39 4.39 0 0 1 1.074 3.235 4.388 4.388 0 0 1-2.148 3.87 3.861 3.861 0 0 1-1.728.393zM81.442-34.1c0 2 .234 3.446 1.681 4.867 1.588 1.557 2.709 1.769 4.9 1.769a5.847 5.847 0 0 0 5.744-5.744 6.461 6.461 0 0 0-.981-3.96 5.769 5.769 0 0 0-1.4-1.466 5.289 5.289 0 0 0-.84-.544c-2.2-1.028-5.884-.726-7.472 1.149a6.168 6.168 0 0 0-1.632 3.929z" transform="translate(-81.442 39.765)" fill="#739518" clip-rule="evenodd"/></clipPath><clipPath id="w"><path d="M165.05-38.883v6.923c0 2.66 1.261 4.565 3.969 4.565a5.529 5.529 0 0 0 3.6-.892 6.776 6.776 0 0 1 .7-.6v1.087a3.922 3.922 0 0 0 1.962 0c.28-1.043.093-9.311.093-11.08 0-.786-.42-.59-1.775-.59-.607 0-.42 2.1-.42 3.068v3.461c.046 2.509-1.074 3.764-3.643 3.764-2.662 0-2.289-2.419-2.289-4.157V-36.6c0-3.16.421-2.872-1.821-2.872-.282 0-.376.287-.376.589z" transform="translate(-165.05 39.494)" fill="none" clip-rule="evenodd"/></clipPath><clipPath id="y"><path d="M76.9-45.332c-.28 1.074-.093 13.272-.093 15.434a1.5 1.5 0 0 0 .093.484 3.922 3.922 0 0 0 1.962 0c.28-1.073.093-13.106.093-15.237a3.111 3.111 0 0 0-.093-.68 4.511 4.511 0 0 0-1.962-.001z" transform="translate(-76.745 45.44)" fill="#739518" clip-rule="evenodd"/></clipPath><clipPath id="aa"><path d="M140.068-38.453c0-1.27.327-1.088-1.681-1.088a.362.362 0 0 0-.373.393v10.989c0 .665 1.681.378 2.054.287.187-2.192.094-4.611.094-6.832a2.976 2.976 0 0 1 .327-1.391l.747-1.013a4.529 4.529 0 0 1 2.709-.756c0-2.147.28-1.875-1.074-1.875a4.34 4.34 0 0 0-2.803 1.286z" transform="translate(-138.014 39.749)" fill="#739518" clip-rule="evenodd"/></clipPath><clipPath id="ac"><path d="M183.349-38.454c0-1.27.187-1.088-1.775-1.088-.513 0-.327 1.753-.327 2.676v8.994a4.491 4.491 0 0 0 2.1 0c0-1.935-.373-6.878.421-8.374 1.261-2.283 3.456-1.013 3.456-1.9 0-1.859.234-1.587-1.074-1.587a3.954 3.954 0 0 0-2.801 1.279z" transform="translate(-181.214 39.753)" fill="none" clip-rule="evenodd"/></clipPath></defs><g transform="translate(17.279 27.011)" clip-path="url(#a)"><g transform="translate(-73.461 -235.546)" clip-path="url(#b)"><path d="M69.816 231.901h25.331v24.907H69.816z" fill="#739518"/></g></g><g transform="translate(10.928 11.97)" clip-path="url(#c)"><g transform="translate(-67.11 -220.505)" clip-path="url(#b)"><path d="M63.465 216.86h22.932v45.188H63.465z" fill="#739518"/></g></g><g transform="translate(9.333 -.001)" clip-path="url(#e)"><g transform="translate(-65.514 -208.534)" clip-path="url(#f)"><path d="M61.87 204.889h16.977v20.795H61.87z" fill="#ed184a"/></g></g><g transform="translate(16.812 22.433)" clip-path="url(#g)"><g transform="translate(-72.994 -230.968)" clip-path="url(#b)"><path d="M69.349 227.323h24.8v14.334h-24.8z" fill="#739518"/></g></g><g transform="translate(0 6.639)" clip-path="url(#i)"><g transform="translate(-56.181 -215.173)" clip-path="url(#b)"><path d="M52.537 211.531h16.776v11.759H52.537z" fill="#739518"/></g></g><g transform="translate(71.14 21.43)" clip-path="url(#k)"><g transform="translate(-127.322 -229.964)" clip-path="url(#b)"><path d="M123.678 226.32h24.832v19.121h-24.832z" fill="#739518"/></g></g><g transform="translate(137.577 21.266)" clip-path="url(#m)"><g transform="translate(-193.759 -229.801)" clip-path="url(#f)"><path d="M190.114 226.157h19.711v19.571h-19.711z" fill="#ed184a"/></g></g><g transform="translate(107.191 21.226)" clip-path="url(#o)"><g transform="translate(-163.373 -229.761)" clip-path="url(#f)"><path d="M159.728 226.116h19.836v19.6h-19.836z" fill="#ed184a"/></g></g><g transform="translate(88.076 21.266)" clip-path="url(#q)"><g transform="translate(-144.258 -229.8)" clip-path="url(#b)"><path d="M140.613 226.156h18.824v19.589h-18.824z" fill="#739518"/></g></g><g transform="translate(43.291 17.065)" clip-path="url(#s)"><g transform="translate(-99.472 -225.6)" clip-path="url(#b)"><path d="M95.828 221.953h19.151v23.5H95.828z" fill="#739518"/></g></g><g transform="translate(59.309 21.244)" clip-path="url(#u)"><g transform="translate(-115.491 -229.779)" clip-path="url(#b)"><path d="M111.846 226.134h19.618v19.587h-19.618z" fill="#739518"/></g></g><g transform="translate(120.252 21.442)" clip-path="url(#w)"><g transform="translate(-176.434 -229.976)" clip-path="url(#f)"><path d="M172.789 226.332h17.671v19.388h-17.671z" fill="#ed184a"/></g></g><g transform="translate(55.885 17.107)" clip-path="url(#y)"><g transform="translate(-112.067 -225.642)" clip-path="url(#b)"><path d="M108.422 221.998h9.555v23.44h-9.555z" fill="#739518"/></g></g><g transform="translate(100.544 21.256)" clip-path="url(#aa)"><g transform="translate(-156.726 -229.791)" clip-path="url(#b)"><path d="M153.082 226.146h13.244v19.306h-13.244z" fill="#739518"/></g></g><g transform="translate(132.034 21.253)" clip-path="url(#ac)"><g transform="translate(-188.216 -229.788)" clip-path="url(#f)"><path d="M184.571 226.143h13.316v19.294h-13.316z" fill="#ed184a"/></g></g></svg>